<?xml version="1.0" encoding="UTF-8"?>
<svg width="370px" height="110px" viewBox="0 0 370 110" version="1.1" xmlns="http://www.w3.org/2000/svg" xmlns:xlink="http://www.w3.org/1999/xlink">
    <!-- Generator: Sketch 62 (91390) - https://sketch.com -->
    <title>logo-bflexion/blue copy 2</title>
    <desc>Created with Sketch.</desc>
    <defs>
        <polygon id="path-1" points="-1.02678237e-14 0 49.4661132 0 49.4661132 110 -1.02678237e-14 110"></polygon>
        <polygon id="path-3" points="0 110 369.068851 110 369.068851 0 0 0"></polygon>
    </defs>
    <g id="DESIGN" stroke="none" stroke-width="1" fill="none" fill-rule="evenodd">
        <g id="D---Homepage" transform="translate(-175.000000, -405.000000)">
            <g id="banner/desktop/path" transform="translate(0.000000, 109.000000)">
                <g id="content" transform="translate(175.000000, 296.000000)">
                    <g id="text">
                        <g id="logo-bflexion/white">
                            <g id="Group-3" stroke-width="1" fill-rule="evenodd" transform="translate(51.274615, 0.000000)">
                                <mask id="mask-2" fill="white">
                                    <use xlink:href="#path-1"></use>
                                </mask>
                                <g id="Clip-2"></g>
                                <path d="M49.4661132,6.44789217 C49.4661132,2.88724531 38.794288,-2.05356474e-14 25.6297211,-2.05356474e-14 L25.6297211,12.8957843 C38.794288,12.8957843 49.4661132,10.008539 49.4661132,6.44789217 L49.4661132,6.44789217 Z M23.8363921,15.0850619 C12.1949265,15.0850619 2.50863756,12.8278662 0.421959775,9.84380132 L0.378607743,9.84380132 C3.49850895,14.0720695 5.35397591,19.3436765 5.35397591,25.0603644 C5.35397591,30.6990187 3.54330605,35.8998174 0.498548364,40.1006293 C0.455196332,40.1555418 0.421959775,40.2118995 0.384388014,40.2682571 C0.381497878,40.2711473 0.380052811,40.2740374 0.378607743,40.2769275 C0.134391298,40.6468649 -1.02678237e-14,41.0269177 -1.02678237e-14,41.417086 C-1.02678237e-14,44.9777328 10.6718251,47.8649781 23.8363921,47.8649781 L23.8363921,15.0850619 Z M49.0817251,75.2360058 C49.0441534,75.1810933 49.0109168,75.1247356 48.9675648,75.069823 C45.9228071,70.8690112 44.1135823,65.6682125 44.1135823,60.0281131 C44.1135823,54.3114252 45.9676042,49.0412633 49.0875054,44.81155 L49.0441534,44.81155 C46.9574756,47.7970599 37.2711867,50.0542557 25.6297211,50.0542557 L25.6297211,82.8327268 C38.794288,82.8327268 49.4661132,79.9454815 49.4661132,76.3848347 C49.4661132,75.9961115 49.3317219,75.6146136 49.0875054,75.2446762 C49.0860604,75.2417861 49.0831702,75.238896 49.0817251,75.2360058 L49.0817251,75.2360058 Z M23.8652934,110 L23.8652934,85.0234495 C12.7975197,85.0234495 3.49417375,82.9815688 0.810682992,80.2157092 L23.8652934,110 Z" id="Fill-1" fill="#C0A392" mask="url(#mask-2)"></path>
                            </g>
                            <path d="M30.4533572,52.9143338 C30.4533572,48.5719053 27.1658281,46.6499652 21.0878733,46.6499652 L8.06347788,46.6499652 L8.06347788,59.1787023 L21.0878733,59.1787023 C27.1658281,59.1787023 30.4533572,57.2553172 30.4533572,52.9143338 L30.4533572,52.9143338 Z M8.06347788,28.4146556 L8.06347788,40.3855966 L19.4751777,40.3855966 C25.0574743,40.3855966 28.2207275,38.4000736 28.2207275,34.4319176 C28.2207275,30.4001787 25.0574743,28.4146556 19.4751777,28.4146556 L8.06347788,28.4146556 Z M38.5775279,53.7206815 C38.5775279,61.1627803 32.7481247,65.5052088 21.5849766,65.5052088 L0,65.5052088 L0,22.0895942 L20.3451084,22.0895942 C30.7640467,22.0895942 36.3463433,26.4927155 36.3463433,33.3770182 C36.3463433,37.8422774 34.1122686,41.1298065 30.7640467,42.9289158 C35.4142746,44.4173356 38.5775279,48.076247 38.5775279,53.7206815 L38.5775279,53.7206815 Z" id="Fill-4" fill="#FFFFFF" fill-rule="evenodd"></path>
                            <mask id="mask-4" fill="white">
                                <use xlink:href="#path-3"></use>
                            </mask>
                            <g id="Clip-7"></g>
                            <path d="M189.897794,65.5034747 L194.407851,65.5034747 L194.407851,22.9361149 L189.897794,22.9361149 L189.897794,65.5034747 Z M120.508532,65.5034747 L125.018589,65.5034747 L125.018589,22.9361149 L120.508532,22.9361149 L120.508532,65.5034747 Z M156.058643,65.5034747 L160.5687,65.5034747 L160.5687,22.9361149 L156.058643,22.9361149 L156.058643,65.5034747 Z M333.41325,22.9361149 L333.41325,65.5034747 L337.923306,65.5034747 L337.923306,23.9303215 L337.131409,22.9361149 L333.41325,22.9361149 Z M364.619487,22.9361149 L364.619487,57.4761235 L364.609372,57.464563 L364.609372,64.569961 L365.350692,65.5034747 L369.068851,65.5034747 L369.068851,22.9361149 L364.619487,22.9361149 Z M267.765268,65.5034747 L272.275325,65.5034747 L272.275325,22.9361149 L267.765268,22.9361149 L267.765268,65.5034747 Z M280.429842,44.2190723 C280.429842,56.3576411 289.542439,65.445672 302.039385,65.8315051 L302.039385,61.817107 C292.158012,61.4283838 284.879205,54.1004453 284.879205,44.2190723 C284.879205,34.3376992 292.158012,27.0112058 302.039385,26.6210376 L302.039385,22.6066394 C289.542439,22.9939176 280.429842,32.0805034 280.429842,44.2190723 L280.429842,44.2190723 Z M245.830586,43.4893131 L243.271371,40.3275049 L230.410268,22.9361149 L225.2297,22.9361149 L240.405801,43.6121438 L224.193587,65.5034747 L229.374154,65.5034747 L229.379935,65.4948043 L243.089292,46.7710619 L245.830586,43.4893131 Z M195.98731,65.5034747 L220.067918,65.5034747 L220.067918,61.6119074 L195.98731,61.6119074 L195.98731,65.5034747 Z M195.98731,26.8276822 L219.15319,26.8276822 L219.15319,22.9361149 L195.98731,22.9361149 L195.98731,26.8276822 Z M195.98731,45.7999764 L216.47259,45.7999764 L216.47259,41.9691018 L195.98731,41.9691018 L195.98731,45.7999764 Z M244.333495,47.7407023 L244.067603,48.1048594 L256.862232,65.5034747 L262.103493,65.5034747 L246.795891,44.7942092 L244.333495,47.7407023 Z M246.797336,42.1757465 L260.940214,22.9418951 L260.941659,22.9418951 L260.945994,22.9361149 L256.070335,22.9361149 L244.249681,38.9980426 L244.521354,39.3650898 L246.797336,42.1757465 Z M126.596603,26.8276822 L149.762483,26.8276822 L149.762483,22.9361149 L126.596603,22.9361149 L126.596603,26.8276822 Z M126.596603,47.4430184 L147.081883,47.4430184 L147.081883,43.551451 L126.596603,43.551451 L126.596603,47.4430184 Z M303.618844,22.6051944 L303.618844,26.6195925 C313.468425,26.9823045 320.716885,34.3189133 320.716885,44.2190723 C320.716885,54.1192312 313.468425,61.4572851 303.618844,61.8199971 L303.618844,65.8343952 C316.03053,65.4745734 325.228386,56.4356748 325.228386,44.2190723 C325.228386,32.0039148 316.03053,22.9635712 303.618844,22.6051944 L303.618844,22.6051944 Z M162.148159,65.5034747 L184.46145,65.5034747 L184.46145,61.6119074 L162.148159,61.6119074 L162.148159,65.5034747 Z M339.50132,32.9504342 L363.031358,62.5815478 L363.031358,55.480485 L339.50132,25.9143994 L339.50132,32.9504342 Z" id="Fill-6" fill="#FFFFFF" fill-rule="evenodd" mask="url(#mask-4)"></path>
                        </g>
                    </g>
                </g>
            </g>
        </g>
    </g>
</svg>